<mxfile host="app.diagrams.net" modified="2023-10-03T08:32:27.821Z" agent="Mozilla/5.0 (Windows NT 10.0; Win64; x64) AppleWebKit/537.36 (KHTML, like Gecko) Chrome/117.0.0.0 Safari/537.36" etag="G3DFJBNid-j1PbiEvF-a" version="22.0.1" type="github">
  <diagram name="Page-1" id="8n7UljZOvAMEK-RNjbLS">
    <mxGraphModel dx="1257" dy="613" grid="1" gridSize="10" guides="1" tooltips="1" connect="1" arrows="1" fold="1" page="1" pageScale="1" pageWidth="850" pageHeight="1100" math="0" shadow="0">
      <root>
        <mxCell id="0" />
        <mxCell id="1" parent="0" />
        <mxCell id="h5iv1A9wsyfgrQQk6wiK-1" value="" style="rounded=0;whiteSpace=wrap;html=1;" vertex="1" parent="1">
          <mxGeometry x="200" y="120" width="440" height="800" as="geometry" />
        </mxCell>
        <mxCell id="h5iv1A9wsyfgrQQk6wiK-41" value="" style="rounded=0;whiteSpace=wrap;html=1;" vertex="1" parent="1">
          <mxGeometry x="200" y="120" width="440" height="60" as="geometry" />
        </mxCell>
        <mxCell id="h5iv1A9wsyfgrQQk6wiK-42" value="&lt;b&gt;&lt;font style=&quot;font-size: 18px;&quot;&gt;Anggota&lt;/font&gt;&lt;/b&gt;" style="shape=umlActor;verticalLabelPosition=bottom;verticalAlign=top;html=1;outlineConnect=0;" vertex="1" parent="1">
          <mxGeometry x="50" y="390" width="80" height="120" as="geometry" />
        </mxCell>
        <mxCell id="h5iv1A9wsyfgrQQk6wiK-43" value="&lt;b&gt;&lt;font style=&quot;font-size: 18px;&quot;&gt;Pustakawan&lt;/font&gt;&lt;/b&gt;" style="shape=umlActor;verticalLabelPosition=bottom;verticalAlign=top;html=1;outlineConnect=0;" vertex="1" parent="1">
          <mxGeometry x="710" y="400" width="80" height="120" as="geometry" />
        </mxCell>
        <mxCell id="h5iv1A9wsyfgrQQk6wiK-44" value="&lt;span style=&quot;font-size: 20px;&quot;&gt;&lt;b&gt;&amp;nbsp;Usecase Perpus Digital Buku Kunjungan&lt;/b&gt;&lt;/span&gt;" style="text;html=1;strokeColor=none;fillColor=none;align=center;verticalAlign=middle;whiteSpace=wrap;rounded=0;" vertex="1" parent="1">
          <mxGeometry x="241" y="135" width="370" height="30" as="geometry" />
        </mxCell>
        <mxCell id="h5iv1A9wsyfgrQQk6wiK-47" value="" style="ellipse;whiteSpace=wrap;html=1;" vertex="1" parent="1">
          <mxGeometry x="320" y="220" width="210" height="130" as="geometry" />
        </mxCell>
        <mxCell id="h5iv1A9wsyfgrQQk6wiK-48" value="&lt;b&gt;&lt;font style=&quot;font-size: 18px;&quot;&gt;Isi buku kunjungan&lt;/font&gt;&lt;/b&gt;" style="text;html=1;strokeColor=none;fillColor=none;align=center;verticalAlign=middle;whiteSpace=wrap;rounded=0;" vertex="1" parent="1">
          <mxGeometry x="336" y="270" width="180" height="30" as="geometry" />
        </mxCell>
        <mxCell id="h5iv1A9wsyfgrQQk6wiK-49" value="" style="ellipse;whiteSpace=wrap;html=1;" vertex="1" parent="1">
          <mxGeometry x="321" y="390" width="210" height="130" as="geometry" />
        </mxCell>
        <mxCell id="h5iv1A9wsyfgrQQk6wiK-50" value="&lt;span style=&quot;font-size: 18px;&quot;&gt;&lt;b&gt;Melihat riwayat&lt;/b&gt;&lt;/span&gt;" style="text;html=1;strokeColor=none;fillColor=none;align=center;verticalAlign=middle;whiteSpace=wrap;rounded=0;" vertex="1" parent="1">
          <mxGeometry x="336" y="440" width="180" height="30" as="geometry" />
        </mxCell>
        <mxCell id="h5iv1A9wsyfgrQQk6wiK-51" value="" style="ellipse;whiteSpace=wrap;html=1;" vertex="1" parent="1">
          <mxGeometry x="320" y="560" width="210" height="130" as="geometry" />
        </mxCell>
        <mxCell id="h5iv1A9wsyfgrQQk6wiK-52" value="&lt;span style=&quot;font-size: 18px;&quot;&gt;&lt;b&gt;Rekap kunjungan&lt;/b&gt;&lt;/span&gt;" style="text;html=1;strokeColor=none;fillColor=none;align=center;verticalAlign=middle;whiteSpace=wrap;rounded=0;" vertex="1" parent="1">
          <mxGeometry x="336" y="610" width="180" height="30" as="geometry" />
        </mxCell>
        <mxCell id="h5iv1A9wsyfgrQQk6wiK-53" value="" style="ellipse;whiteSpace=wrap;html=1;" vertex="1" parent="1">
          <mxGeometry x="315" y="730" width="210" height="130" as="geometry" />
        </mxCell>
        <mxCell id="h5iv1A9wsyfgrQQk6wiK-54" value="&lt;span style=&quot;font-size: 18px;&quot;&gt;&lt;b&gt;Laporan statistik&lt;/b&gt;&lt;/span&gt;" style="text;html=1;strokeColor=none;fillColor=none;align=center;verticalAlign=middle;whiteSpace=wrap;rounded=0;" vertex="1" parent="1">
          <mxGeometry x="336" y="780" width="180" height="30" as="geometry" />
        </mxCell>
        <mxCell id="h5iv1A9wsyfgrQQk6wiK-58" value="" style="endArrow=classic;html=1;rounded=0;" edge="1" parent="1">
          <mxGeometry width="50" height="50" relative="1" as="geometry">
            <mxPoint x="130" y="460" as="sourcePoint" />
            <mxPoint x="320" y="280" as="targetPoint" />
          </mxGeometry>
        </mxCell>
        <mxCell id="h5iv1A9wsyfgrQQk6wiK-60" value="" style="endArrow=classic;html=1;rounded=0;" edge="1" parent="1">
          <mxGeometry width="50" height="50" relative="1" as="geometry">
            <mxPoint x="710" y="460" as="sourcePoint" />
            <mxPoint x="530" y="280" as="targetPoint" />
          </mxGeometry>
        </mxCell>
        <mxCell id="h5iv1A9wsyfgrQQk6wiK-61" value="" style="endArrow=classic;html=1;rounded=0;entryX=1;entryY=0.5;entryDx=0;entryDy=0;" edge="1" parent="1" target="h5iv1A9wsyfgrQQk6wiK-49">
          <mxGeometry width="50" height="50" relative="1" as="geometry">
            <mxPoint x="710" y="460" as="sourcePoint" />
            <mxPoint x="540" y="290" as="targetPoint" />
          </mxGeometry>
        </mxCell>
        <mxCell id="h5iv1A9wsyfgrQQk6wiK-62" value="" style="endArrow=classic;html=1;rounded=0;entryX=1;entryY=0.5;entryDx=0;entryDy=0;" edge="1" parent="1" target="h5iv1A9wsyfgrQQk6wiK-51">
          <mxGeometry width="50" height="50" relative="1" as="geometry">
            <mxPoint x="710" y="460" as="sourcePoint" />
            <mxPoint x="541" y="465" as="targetPoint" />
          </mxGeometry>
        </mxCell>
        <mxCell id="h5iv1A9wsyfgrQQk6wiK-63" value="" style="endArrow=classic;html=1;rounded=0;entryX=1;entryY=0.5;entryDx=0;entryDy=0;" edge="1" parent="1" target="h5iv1A9wsyfgrQQk6wiK-53">
          <mxGeometry width="50" height="50" relative="1" as="geometry">
            <mxPoint x="710" y="460" as="sourcePoint" />
            <mxPoint x="540" y="635" as="targetPoint" />
          </mxGeometry>
        </mxCell>
        <mxCell id="h5iv1A9wsyfgrQQk6wiK-65" value="" style="endArrow=classic;html=1;rounded=0;entryX=0;entryY=0.5;entryDx=0;entryDy=0;" edge="1" parent="1" target="h5iv1A9wsyfgrQQk6wiK-49">
          <mxGeometry width="50" height="50" relative="1" as="geometry">
            <mxPoint x="130" y="460" as="sourcePoint" />
            <mxPoint x="330" y="290" as="targetPoint" />
          </mxGeometry>
        </mxCell>
      </root>
    </mxGraphModel>
  </diagram>
</mxfile>
